<svg width="560" height="437" viewBox="0 0 560 437" fill="none" xmlns="http://www.w3.org/2000/svg">
<g clip-path="url(#clip0_10175_2661)">
<line x1="44" y1="78" x2="433" y2="78" stroke="#0AC9A6" stroke-width="2" stroke-dasharray="4 4"/>
<line x1="44" y1="335" x2="115" y2="335" stroke="#0AC9A6" stroke-width="2" stroke-dasharray="4 4"/>
<line x1="116" y1="336" x2="116" y2="394" stroke="#0AC9A6" stroke-width="2" stroke-dasharray="4 4"/>
<line x1="432" y1="336" x2="432" y2="394" stroke="#0AC9A6" stroke-width="2" stroke-dasharray="4 4"/>
<line x1="432" y1="79" x2="432" y2="336" stroke="#777777" stroke-width="2" stroke-dasharray="4 4"/>
<line x1="431" y1="337" x2="115" y2="337" stroke="#777777" stroke-width="2" stroke-dasharray="4 4"/>
<line x1="100.055" y1="347.835" x2="445.055" y2="67.8353" stroke="#0D7DBC" stroke-width="3"/>
<path d="M44 0L38.2265 10L49.7735 10L44 0ZM43 9L43 437L45 437L45 9L43 9Z" fill="black"/>
<path d="M560 394L550 388.226V399.774L560 394ZM551 393L0 393V395L551 395V393Z" fill="black"/>
<rect x="406" y="294" width="26" height="43" stroke="#777777" stroke-width="2"/>
<path d="M445.24 328.92C447.12 328.92 448.567 329.533 449.58 330.76C450.593 331.973 451.1 333.72 451.1 336C451.1 338.28 450.593 340.033 449.58 341.26C448.567 342.487 447.12 343.1 445.24 343.1C443.347 343.1 441.893 342.487 440.88 341.26C439.88 340.033 439.38 338.28 439.38 336C439.38 333.72 439.88 331.973 440.88 330.76C441.893 329.533 443.347 328.92 445.24 328.92ZM445.24 330.44C442.653 330.44 441.36 332.293 441.36 336C441.36 337.84 441.687 339.227 442.34 340.16C442.993 341.093 443.96 341.56 445.24 341.56C446.52 341.56 447.487 341.093 448.14 340.16C448.793 339.227 449.12 337.84 449.12 336C449.12 332.293 447.827 330.44 445.24 330.44Z" fill="black"/>
<path d="M112.4 323L110.92 319.6H103.54L102.08 323H100.06L106.28 309H108.28L114.48 323H112.4ZM104.3 317.86H110.18L107.22 311.06L104.3 317.86Z" fill="black"/>
<path d="M21.416 339.2C21.1493 339.851 20.792 340.341 20.344 340.672C19.9067 341.003 19.3893 341.168 18.792 341.168C18.4293 341.168 18.0987 341.115 17.8 341.008C17.5013 340.901 17.2133 340.736 16.936 340.512L17.576 339.344C17.9493 339.611 18.328 339.744 18.712 339.744C19.352 339.744 19.832 339.381 20.152 338.656L20.472 337.904L16.968 329.536H18.536L21.224 336.32L23.768 329.536H25.288L21.416 339.2ZM28.0828 336.208C28.3388 335.952 28.5414 335.696 28.6908 335.44C28.8508 335.184 28.9308 334.96 28.9308 334.768C28.9308 334.491 28.8294 334.277 28.6268 334.128C28.4241 333.968 28.1414 333.888 27.7788 333.888C27.4801 333.888 27.1654 333.963 26.8348 334.112C26.5041 334.261 26.1948 334.464 25.9068 334.72L25.4428 333.904C25.8161 333.605 26.2161 333.376 26.6428 333.216C27.0694 333.045 27.5014 332.96 27.9388 332.96C28.5894 332.96 29.1121 333.109 29.5068 333.408C29.9014 333.707 30.0988 334.112 30.0988 334.624C30.0988 335.253 29.6774 335.973 28.8348 336.784L26.9628 338.704H30.4188V339.6H25.5708V338.816L28.0828 336.208Z" fill="black"/>
<path d="M109.434 407.594H110.946L112.78 410.31L114.642 407.594H116.084L113.648 411.206L116.266 415H114.74L112.78 412.088L110.722 415H109.252L111.912 411.206L109.434 407.594ZM116.645 410.632H118.801V416.4H117.821V411.43H116.645V410.632Z" fill="black"/>
<path d="M427.434 407.594H428.946L430.78 410.31L432.642 407.594H434.084L431.648 411.206L434.266 415H432.74L430.78 412.088L428.722 415H427.252L429.912 411.206L427.434 407.594ZM437.067 413.432C437.291 413.208 437.468 412.984 437.599 412.76C437.739 412.536 437.809 412.34 437.809 412.172C437.809 411.929 437.72 411.743 437.543 411.612C437.365 411.472 437.118 411.402 436.801 411.402C436.539 411.402 436.264 411.467 435.975 411.598C435.685 411.729 435.415 411.906 435.163 412.13L434.757 411.416C435.083 411.155 435.433 410.954 435.807 410.814C436.18 410.665 436.558 410.59 436.941 410.59C437.51 410.59 437.967 410.721 438.313 410.982C438.658 411.243 438.831 411.598 438.831 412.046C438.831 412.597 438.462 413.227 437.725 413.936L436.087 415.616H439.111V416.4H434.869V415.714L437.067 413.432Z" fill="black"/>
<path d="M449.528 84.128C448.931 85.0453 448.467 86.1013 448.136 87.296C447.816 88.4907 447.656 89.744 447.656 91.056C447.656 92.368 447.816 93.6213 448.136 94.816C448.467 96.0107 448.931 97.0667 449.528 97.984H448.152C447.533 97.0773 447.059 96.032 446.728 94.848C446.397 93.6533 446.232 92.3893 446.232 91.056C446.232 89.7227 446.397 88.464 446.728 87.28C447.059 86.0853 447.533 85.0347 448.152 84.128H449.528ZM450.355 87.536H452.083L454.179 90.64L456.307 87.536H457.955L455.171 91.664L458.163 96H456.419L454.179 92.672L451.827 96H450.147L453.187 91.664L450.355 87.536ZM461.364 94.208C461.62 93.952 461.823 93.696 461.972 93.44C462.132 93.184 462.212 92.96 462.212 92.768C462.212 92.4907 462.111 92.2773 461.908 92.128C461.705 91.968 461.423 91.888 461.06 91.888C460.761 91.888 460.447 91.9627 460.116 92.112C459.785 92.2613 459.476 92.464 459.188 92.72L458.724 91.904C459.097 91.6053 459.497 91.376 459.924 91.216C460.351 91.0453 460.783 90.96 461.22 90.96C461.871 90.96 462.393 91.1093 462.788 91.408C463.183 91.7067 463.38 92.112 463.38 92.624C463.38 93.2533 462.959 93.9733 462.116 94.784L460.244 96.704H463.7V97.6H458.852V96.816L461.364 94.208ZM465.773 94.352C466.008 94.352 466.205 94.432 466.365 94.592C466.536 94.752 466.621 94.9653 466.621 95.232C466.621 95.3493 466.595 95.472 466.541 95.6C466.499 95.728 466.451 95.8507 466.397 95.968L465.533 97.792H464.717L465.357 95.984C465.208 95.9093 465.096 95.808 465.021 95.68C464.947 95.5413 464.909 95.392 464.909 95.232C464.909 94.976 464.989 94.768 465.149 94.608C465.32 94.4373 465.528 94.352 465.773 94.352ZM475.979 97.2C475.712 97.8507 475.355 98.3413 474.907 98.672C474.469 99.0027 473.952 99.168 473.355 99.168C472.992 99.168 472.661 99.1147 472.363 99.008C472.064 98.9013 471.776 98.736 471.498 98.512L472.139 97.344C472.512 97.6107 472.891 97.744 473.275 97.744C473.915 97.744 474.395 97.3813 474.715 96.656L475.035 95.904L471.53 87.536H473.099L475.786 94.32L478.331 87.536H479.851L475.979 97.2ZM482.645 94.208C482.901 93.952 483.104 93.696 483.253 93.44C483.413 93.184 483.493 92.96 483.493 92.768C483.493 92.4907 483.392 92.2773 483.189 92.128C482.987 91.968 482.704 91.888 482.341 91.888C482.043 91.888 481.728 91.9627 481.397 92.112C481.067 92.2613 480.757 92.464 480.469 92.72L480.005 91.904C480.379 91.6053 480.779 91.376 481.205 91.216C481.632 91.0453 482.064 90.96 482.501 90.96C483.152 90.96 483.675 91.1093 484.069 91.408C484.464 91.7067 484.661 92.112 484.661 92.624C484.661 93.2533 484.24 93.9733 483.397 94.784L481.525 96.704H484.981V97.6H480.133V96.816L482.645 94.208ZM487.103 84.128C487.721 85.0347 488.196 86.0853 488.527 87.28C488.857 88.464 489.023 89.7227 489.023 91.056C489.023 92.3893 488.857 93.6533 488.527 94.848C488.196 96.032 487.721 97.0773 487.103 97.984H485.727C486.324 97.0667 486.783 96.0107 487.103 94.816C487.433 93.6213 487.599 92.368 487.599 91.056C487.599 89.744 487.433 88.4907 487.103 87.296C486.783 86.1013 486.324 85.0453 485.727 84.128H487.103Z" fill="black"/>
<path d="M69.528 360.128C68.9307 361.045 68.4667 362.101 68.136 363.296C67.816 364.491 67.656 365.744 67.656 367.056C67.656 368.368 67.816 369.621 68.136 370.816C68.4667 372.011 68.9307 373.067 69.528 373.984H68.152C67.5333 373.077 67.0587 372.032 66.728 370.848C66.3973 369.653 66.232 368.389 66.232 367.056C66.232 365.723 66.3973 364.464 66.728 363.28C67.0587 362.085 67.5333 361.035 68.152 360.128H69.528ZM70.3554 363.536H72.0834L74.1794 366.64L76.3074 363.536H77.9554L75.1714 367.664L78.1634 372H76.4194L74.1794 368.672L71.8274 372H70.1474L73.1874 367.664L70.3554 363.536ZM78.596 367.008H81.06V373.6H79.94V367.92H78.596V367.008ZM83.8828 370.352C84.1174 370.352 84.3148 370.432 84.4748 370.592C84.6454 370.752 84.7308 370.965 84.7308 371.232C84.7308 371.349 84.7041 371.472 84.6508 371.6C84.6081 371.728 84.5601 371.851 84.5068 371.968L83.6428 373.792H82.8268L83.4668 371.984C83.3174 371.909 83.2054 371.808 83.1308 371.68C83.0561 371.541 83.0188 371.392 83.0188 371.232C83.0188 370.976 83.0988 370.768 83.2588 370.608C83.4294 370.437 83.6374 370.352 83.8828 370.352ZM94.0879 373.2C93.8212 373.851 93.4639 374.341 93.0159 374.672C92.5785 375.003 92.0612 375.168 91.4639 375.168C91.1012 375.168 90.7705 375.115 90.4719 375.008C90.1732 374.901 89.8852 374.736 89.6079 374.512L90.2479 373.344C90.6212 373.611 90.9999 373.744 91.3839 373.744C92.0239 373.744 92.5039 373.381 92.8239 372.656L93.1439 371.904L89.6399 363.536H91.2079L93.8959 370.32L96.4399 363.536H97.9599L94.0879 373.2ZM97.9866 367.008H100.451V373.6H99.3306V367.92H97.9866V367.008ZM103.321 360.128C103.94 361.035 104.415 362.085 104.745 363.28C105.076 364.464 105.241 365.723 105.241 367.056C105.241 368.389 105.076 369.653 104.745 370.848C104.415 372.032 103.94 373.077 103.321 373.984H101.945C102.543 373.067 103.001 372.011 103.321 370.816C103.652 369.621 103.817 368.368 103.817 367.056C103.817 365.744 103.652 364.491 103.321 363.296C103.001 362.101 102.543 361.045 101.945 360.128H103.321Z" fill="black"/>
<path d="M130.341 185C130.108 185.001 129.881 184.925 129.693 184.784C129.504 184.643 129.364 184.443 129.291 184.214L126.6 175.806L124.773 176.631C124.639 176.69 124.487 176.693 124.351 176.638C124.215 176.583 124.106 176.474 124.046 176.336C123.988 176.197 123.985 176.04 124.038 175.898C124.091 175.757 124.196 175.643 124.331 175.582L126.154 174.756C126.295 174.693 126.447 174.66 126.601 174.66C126.755 174.661 126.907 174.694 127.047 174.758C127.331 174.89 127.55 175.14 127.648 175.446L130.34 183.853L133.546 165.849C133.609 165.606 133.748 165.39 133.941 165.237C134.134 165.083 134.371 165 134.615 165H266.475C266.616 165.007 266.75 165.071 266.848 165.177C266.945 165.284 267 165.425 267 165.572C267 165.719 266.945 165.86 266.848 165.967C266.75 166.073 266.616 166.137 266.475 166.144H134.615L131.411 184.15C131.351 184.389 131.217 184.601 131.03 184.754C130.843 184.907 130.613 184.993 130.375 184.999C130.363 185 130.352 185 130.341 185Z" fill="black"/>
<path d="M141.528 171.128C140.931 172.045 140.467 173.101 140.136 174.296C139.816 175.491 139.656 176.744 139.656 178.056C139.656 179.368 139.816 180.621 140.136 181.816C140.467 183.011 140.931 184.067 141.528 184.984H140.152C139.533 184.077 139.059 183.032 138.728 181.848C138.397 180.653 138.232 179.389 138.232 178.056C138.232 176.723 138.397 175.464 138.728 174.28C139.059 173.085 139.533 172.035 140.152 171.128H141.528ZM142.355 174.536H144.083L146.179 177.64L148.307 174.536H149.955L147.171 178.664L150.163 183H148.419L146.179 179.672L143.827 183H142.147L145.187 178.664L142.355 174.536ZM153.364 181.208C153.62 180.952 153.823 180.696 153.972 180.44C154.132 180.184 154.212 179.96 154.212 179.768C154.212 179.491 154.111 179.277 153.908 179.128C153.705 178.968 153.423 178.888 153.06 178.888C152.761 178.888 152.447 178.963 152.116 179.112C151.785 179.261 151.476 179.464 151.188 179.72L150.724 178.904C151.097 178.605 151.497 178.376 151.924 178.216C152.351 178.045 152.783 177.96 153.22 177.96C153.871 177.96 154.393 178.109 154.788 178.408C155.183 178.707 155.38 179.112 155.38 179.624C155.38 180.253 154.959 180.973 154.116 181.784L152.244 183.704H155.7V184.6H150.852V183.816L153.364 181.208ZM161.305 177.608H165.129V178.68H161.305V177.608ZM170.84 174.536H172.568L174.664 177.64L176.792 174.536H178.44L175.656 178.664L178.648 183H176.904L174.664 179.672L172.312 183H170.632L173.672 178.664L170.84 174.536ZM179.08 178.008H181.544V184.6H180.424V178.92H179.08V178.008ZM184.415 171.128C185.034 172.035 185.508 173.085 185.839 174.28C186.17 175.464 186.335 176.723 186.335 178.056C186.335 179.389 186.17 180.653 185.839 181.848C185.508 183.032 185.034 184.077 184.415 184.984H183.039C183.636 184.067 184.095 183.011 184.415 181.816C184.746 180.621 184.911 179.368 184.911 178.056C184.911 176.744 184.746 175.491 184.415 174.296C184.095 173.101 183.636 172.045 183.039 171.128H184.415ZM190.427 173.848C190.683 173.592 190.885 173.336 191.035 173.08C191.195 172.824 191.275 172.6 191.275 172.408C191.275 172.131 191.173 171.917 190.971 171.768C190.768 171.608 190.485 171.528 190.123 171.528C189.824 171.528 189.509 171.603 189.179 171.752C188.848 171.901 188.539 172.104 188.251 172.36L187.787 171.544C188.16 171.245 188.56 171.016 188.987 170.856C189.413 170.685 189.845 170.6 190.283 170.6C190.933 170.6 191.456 170.749 191.851 171.048C192.245 171.347 192.443 171.752 192.443 172.264C192.443 172.893 192.021 173.613 191.179 174.424L189.307 176.344H192.763V177.24H187.915V176.456L190.427 173.848ZM204.687 177.288V178.36H201.823V181.208H200.815V178.36H197.935V177.288H200.815V174.44H201.823V177.288H204.687ZM213.981 171.128C213.384 172.045 212.92 173.101 212.589 174.296C212.269 175.491 212.109 176.744 212.109 178.056C212.109 179.368 212.269 180.621 212.589 181.816C212.92 183.011 213.384 184.067 213.981 184.984H212.605C211.986 184.077 211.512 183.032 211.181 181.848C210.85 180.653 210.685 179.389 210.685 178.056C210.685 176.723 210.85 175.464 211.181 174.28C211.512 173.085 211.986 172.035 212.605 171.128H213.981ZM218.729 184.2C218.462 184.851 218.105 185.341 217.657 185.672C217.219 186.003 216.702 186.168 216.105 186.168C215.742 186.168 215.411 186.115 215.113 186.008C214.814 185.901 214.526 185.736 214.248 185.512L214.889 184.344C215.262 184.611 215.641 184.744 216.025 184.744C216.665 184.744 217.145 184.381 217.465 183.656L217.785 182.904L214.28 174.536H215.849L218.536 181.32L221.081 174.536H222.601L218.729 184.2ZM225.395 181.208C225.651 180.952 225.854 180.696 226.003 180.44C226.163 180.184 226.243 179.96 226.243 179.768C226.243 179.491 226.142 179.277 225.939 179.128C225.737 178.968 225.454 178.888 225.091 178.888C224.793 178.888 224.478 178.963 224.147 179.112C223.817 179.261 223.507 179.464 223.219 179.72L222.755 178.904C223.129 178.605 223.529 178.376 223.955 178.216C224.382 178.045 224.814 177.96 225.251 177.96C225.902 177.96 226.425 178.109 226.819 178.408C227.214 178.707 227.411 179.112 227.411 179.624C227.411 180.253 226.99 180.973 226.147 181.784L224.275 183.704H227.731V184.6H222.883V183.816L225.395 181.208ZM233.336 177.608H237.16V178.68H233.336V177.608ZM246.791 184.2C246.524 184.851 246.167 185.341 245.719 185.672C245.282 186.003 244.764 186.168 244.167 186.168C243.804 186.168 243.474 186.115 243.175 186.008C242.876 185.901 242.588 185.736 242.311 185.512L242.951 184.344C243.324 184.611 243.703 184.744 244.087 184.744C244.727 184.744 245.207 184.381 245.527 183.656L245.847 182.904L242.343 174.536H243.911L246.599 181.32L249.143 174.536H250.663L246.791 184.2ZM250.69 178.008H253.154V184.6H252.034V178.92H250.69V178.008ZM256.025 171.128C256.643 172.035 257.118 173.085 257.449 174.28C257.779 175.464 257.945 176.723 257.945 178.056C257.945 179.389 257.779 180.653 257.449 181.848C257.118 183.032 256.643 184.077 256.025 184.984H254.649C255.246 184.067 255.705 183.011 256.025 181.816C256.355 180.621 256.521 179.368 256.521 178.056C256.521 176.744 256.355 175.491 256.025 174.296C255.705 173.101 255.246 172.045 254.649 171.128H256.025ZM262.036 173.848C262.292 173.592 262.495 173.336 262.644 173.08C262.804 172.824 262.884 172.6 262.884 172.408C262.884 172.131 262.783 171.917 262.58 171.768C262.377 171.608 262.095 171.528 261.732 171.528C261.433 171.528 261.119 171.603 260.788 171.752C260.457 171.901 260.148 172.104 259.86 172.36L259.396 171.544C259.769 171.245 260.169 171.016 260.596 170.856C261.023 170.685 261.455 170.6 261.892 170.6C262.543 170.6 263.065 170.749 263.46 171.048C263.855 171.347 264.052 171.752 264.052 172.264C264.052 172.893 263.631 173.613 262.788 174.424L260.916 176.344H264.372V177.24H259.524V176.456L262.036 173.848Z" fill="black"/>
<path d="M449.416 216.2C449.149 216.851 448.792 217.341 448.344 217.672C447.907 218.003 447.389 218.168 446.792 218.168C446.429 218.168 446.099 218.115 445.8 218.008C445.501 217.901 445.213 217.736 444.936 217.512L445.576 216.344C445.949 216.611 446.328 216.744 446.712 216.744C447.352 216.744 447.832 216.381 448.152 215.656L448.472 214.904L444.968 206.536H446.536L449.224 213.32L451.768 206.536H453.288L449.416 216.2ZM456.083 213.208C456.339 212.952 456.541 212.696 456.691 212.44C456.851 212.184 456.931 211.96 456.931 211.768C456.931 211.491 456.829 211.277 456.627 211.128C456.424 210.968 456.141 210.888 455.779 210.888C455.48 210.888 455.165 210.963 454.835 211.112C454.504 211.261 454.195 211.464 453.907 211.72L453.443 210.904C453.816 210.605 454.216 210.376 454.643 210.216C455.069 210.045 455.501 209.96 455.939 209.96C456.589 209.96 457.112 210.109 457.507 210.408C457.901 210.707 458.099 211.112 458.099 211.624C458.099 212.253 457.677 212.973 456.835 213.784L454.963 215.704H458.419V216.6H453.571V215.816L456.083 213.208ZM464.024 209.608H467.848V210.68H464.024V209.608ZM477.479 216.2C477.212 216.851 476.855 217.341 476.407 217.672C475.969 218.003 475.452 218.168 474.855 218.168C474.492 218.168 474.161 218.115 473.863 218.008C473.564 217.901 473.276 217.736 472.998 217.512L473.639 216.344C474.012 216.611 474.391 216.744 474.775 216.744C475.415 216.744 475.895 216.381 476.215 215.656L476.535 214.904L473.03 206.536H474.599L477.286 213.32L479.831 206.536H481.351L477.479 216.2ZM481.377 210.008H483.841V216.6H482.721V210.92H481.377V210.008Z" fill="black"/>
<path d="M255.496 353.536H257.224L259.32 356.64L261.448 353.536H263.096L260.312 357.664L263.304 362H261.56L259.32 358.672L256.968 362H255.288L258.328 357.664L255.496 353.536ZM266.505 360.208C266.761 359.952 266.963 359.696 267.113 359.44C267.273 359.184 267.353 358.96 267.353 358.768C267.353 358.491 267.251 358.277 267.049 358.128C266.846 357.968 266.563 357.888 266.201 357.888C265.902 357.888 265.587 357.963 265.257 358.112C264.926 358.261 264.617 358.464 264.329 358.72L263.865 357.904C264.238 357.605 264.638 357.376 265.065 357.216C265.491 357.045 265.923 356.96 266.361 356.96C267.011 356.96 267.534 357.109 267.929 357.408C268.323 357.707 268.521 358.112 268.521 358.624C268.521 359.253 268.099 359.973 267.257 360.784L265.385 362.704H268.841V363.6H263.993V362.816L266.505 360.208ZM274.446 356.608H278.27V357.68H274.446V356.608ZM283.98 353.536H285.708L287.804 356.64L289.932 353.536H291.58L288.796 357.664L291.788 362H290.044L287.804 358.672L285.452 362H283.772L286.812 357.664L283.98 353.536ZM292.221 357.008H294.685V363.6H293.565V357.92H292.221V357.008Z" fill="black"/>
<path d="M21.416 87.2C21.1493 87.8507 20.792 88.3413 20.344 88.672C19.9067 89.0027 19.3893 89.168 18.792 89.168C18.4293 89.168 18.0987 89.1147 17.8 89.008C17.5013 88.9013 17.2133 88.736 16.936 88.512L17.576 87.344C17.9493 87.6107 18.328 87.744 18.712 87.744C19.352 87.744 19.832 87.3813 20.152 86.656L20.472 85.904L16.968 77.536H18.536L21.224 84.32L23.768 77.536H25.288L21.416 87.2ZM28.0828 84.208C28.3388 83.952 28.5414 83.696 28.6908 83.44C28.8508 83.184 28.9308 82.96 28.9308 82.768C28.9308 82.4907 28.8294 82.2773 28.6268 82.128C28.4241 81.968 28.1414 81.888 27.7788 81.888C27.4801 81.888 27.1654 81.9627 26.8348 82.112C26.5041 82.2613 26.1948 82.464 25.9068 82.72L25.4428 81.904C25.8161 81.6053 26.2161 81.376 26.6428 81.216C27.0694 81.0453 27.5014 80.96 27.9388 80.96C28.5894 80.96 29.1121 81.1093 29.5068 81.408C29.9014 81.7067 30.0988 82.112 30.0988 82.624C30.0988 83.2533 29.6774 83.9733 28.8348 84.784L26.9628 86.704H30.4188V87.6H25.5708V86.816L28.0828 84.208Z" fill="black"/>
<path d="M423.98 52C425.407 52 426.527 52.3133 427.34 52.94C428.167 53.5533 428.58 54.4067 428.58 55.5C428.58 56.3 428.353 56.98 427.9 57.54C427.447 58.0867 426.827 58.4533 426.04 58.64C427.013 58.7867 427.773 59.18 428.32 59.82C428.88 60.4467 429.16 61.2333 429.16 62.18C429.16 63.38 428.707 64.32 427.8 65C426.907 65.6667 425.667 66 424.08 66H418V52H423.98ZM423.88 57.94C424.747 57.94 425.413 57.76 425.88 57.4C426.36 57.0267 426.6 56.5 426.6 55.82C426.6 55.1533 426.36 54.64 425.88 54.28C425.413 53.92 424.747 53.7467 423.88 53.76H419.92V57.94H423.88ZM423.88 64.24C424.92 64.2533 425.733 64.06 426.32 63.66C426.907 63.2467 427.2 62.6733 427.2 61.94C427.2 61.2333 426.907 60.68 426.32 60.28C425.733 59.88 424.92 59.68 423.88 59.68H419.92V64.24H423.88Z" fill="black"/>
</g>
<defs>
<clipPath id="clip0_10175_2661">
<rect width="560" height="437" fill="white"/>
</clipPath>
</defs>
</svg>
