<svg width="560" height="259" viewBox="0 0 560 259" fill="none" xmlns="http://www.w3.org/2000/svg">
<rect x="560" y="79" width="560" height="45" transform="rotate(-180 560 79)" fill="#F5F5F5"/>
<rect x="560" y="169" width="560" height="45" transform="rotate(-180 560 169)" fill="#F5F5F5"/>
<rect x="560" y="259" width="560" height="45" transform="rotate(-180 560 259)" fill="#F5F5F5"/>
<rect x="560" y="34" width="560" height="2" transform="rotate(-180 560 34)" fill="#0AC9A6"/>
<path d="M89.68 9.392V21.104H87.232V16.736C86.9227 17.184 86.5387 17.5253 86.08 17.76C85.6213 17.984 85.0987 18.096 84.512 18.096C83.7013 18.096 82.9867 17.9147 82.368 17.552C81.76 17.1787 81.2853 16.656 80.944 15.984C80.6133 15.312 80.448 14.5387 80.448 13.664C80.448 12.8 80.6133 12.0373 80.944 11.376C81.2747 10.7147 81.744 10.2027 82.352 9.84C82.96 9.47733 83.6587 9.296 84.448 9.296C85.664 9.296 86.592 9.74933 87.232 10.656V9.392H89.68ZM85.088 16.112C85.7173 16.112 86.2293 15.8933 86.624 15.456C87.0293 15.008 87.232 14.432 87.232 13.728C87.232 13.024 87.0293 12.4533 86.624 12.016C86.2293 11.568 85.7173 11.344 85.088 11.344C84.448 11.344 83.9253 11.568 83.52 12.016C83.1253 12.4533 82.9227 13.024 82.912 13.728C82.9227 14.432 83.1253 15.008 83.52 15.456C83.9253 15.8933 84.448 16.112 85.088 16.112ZM100.313 9.392V18H97.8651V16.48C97.2785 17.5573 96.3185 18.096 94.9851 18.096C94.0358 18.096 93.2785 17.8027 92.7131 17.216C92.1585 16.6187 91.8811 15.8133 91.8811 14.8V9.392H94.3451V14.096C94.3451 14.64 94.4891 15.0667 94.7771 15.376C95.0651 15.6853 95.4598 15.84 95.9611 15.84C96.5478 15.8293 97.0118 15.6213 97.3531 15.216C97.6945 14.8107 97.8651 14.288 97.8651 13.648V9.392H100.313ZM106.396 9.312C107.782 9.312 108.833 9.712 109.548 10.512C110.273 11.312 110.636 12.4267 110.636 13.856C110.636 14.112 110.63 14.3093 110.62 14.448H104.444C104.582 14.992 104.849 15.4187 105.244 15.728C105.638 16.0267 106.113 16.176 106.668 16.176C107.073 16.176 107.462 16.1013 107.836 15.952C108.209 15.792 108.545 15.5627 108.844 15.264L110.14 16.576C109.702 17.0667 109.169 17.4453 108.54 17.712C107.921 17.968 107.228 18.096 106.46 18.096C105.553 18.096 104.758 17.9147 104.076 17.552C103.404 17.1893 102.881 16.6773 102.508 16.016C102.145 15.3547 101.964 14.592 101.964 13.728C101.964 12.8533 102.15 12.0853 102.524 11.424C102.897 10.752 103.42 10.2347 104.092 9.872C104.764 9.49867 105.532 9.312 106.396 9.312ZM108.316 12.992C108.294 12.4267 108.113 11.9733 107.772 11.632C107.43 11.2907 106.977 11.12 106.412 11.12C105.878 11.12 105.43 11.2907 105.068 11.632C104.716 11.9627 104.492 12.416 104.396 12.992H108.316ZM114.711 10.944C115.009 10.4107 115.399 10.0053 115.879 9.728C116.359 9.45067 116.919 9.30667 117.559 9.296V11.616C117.473 11.6053 117.345 11.6 117.175 11.6C116.417 11.6 115.815 11.808 115.367 12.224C114.929 12.6293 114.711 13.1733 114.711 13.856V18H112.247V9.392H114.711V10.944ZM123.469 18.96C122.872 20.464 121.821 21.216 120.317 21.216C119.859 21.216 119.443 21.1467 119.069 21.008C118.696 20.88 118.333 20.672 117.981 20.384L119.021 18.608C119.395 18.9173 119.768 19.072 120.141 19.072C120.664 19.072 121.043 18.816 121.277 18.304L121.517 17.824L117.949 9.392H120.493L122.749 15.312L124.781 9.392H127.245L123.469 18.96ZM127.141 19.856H136.373V21.264H127.141V19.856ZM136.343 9.408L138.855 9.392L140.775 15.552L142.631 9.392H145.047L146.935 15.552L148.823 9.392H151.255L148.119 18H145.655L143.799 12.32L141.959 18H139.495L136.343 9.408ZM155.947 9.312C156.854 9.312 157.654 9.49333 158.347 9.856C159.051 10.2187 159.595 10.7307 159.979 11.392C160.363 12.0533 160.555 12.8213 160.555 13.696C160.555 14.56 160.363 15.328 159.979 16C159.595 16.6613 159.051 17.1787 158.347 17.552C157.654 17.9147 156.854 18.096 155.947 18.096C155.03 18.096 154.219 17.9147 153.515 17.552C152.822 17.1787 152.283 16.6613 151.899 16C151.515 15.328 151.323 14.56 151.323 13.696C151.323 12.8213 151.515 12.0533 151.899 11.392C152.283 10.7307 152.822 10.2187 153.515 9.856C154.219 9.49333 155.03 9.312 155.947 9.312ZM155.947 11.36C155.307 11.36 154.784 11.5787 154.379 12.016C153.984 12.4533 153.787 13.024 153.787 13.728C153.787 14.432 153.984 15.0027 154.379 15.44C154.784 15.8773 155.307 16.096 155.947 16.096C156.576 16.096 157.088 15.8773 157.483 15.44C157.888 15.0027 158.091 14.432 158.091 13.728C158.091 13.024 157.888 12.4533 157.483 12.016C157.088 11.5787 156.576 11.36 155.947 11.36ZM164.648 10.944C164.947 10.4107 165.336 10.0053 165.816 9.728C166.296 9.45067 166.856 9.30667 167.496 9.296V11.616C167.411 11.6053 167.283 11.6 167.112 11.6C166.355 11.6 165.752 11.808 165.304 12.224C164.867 12.6293 164.648 13.1733 164.648 13.856V18H162.184V9.392H164.648V10.944ZM177.336 6.128V18H174.888V16.736C174.579 17.184 174.195 17.5253 173.736 17.76C173.278 17.984 172.755 18.096 172.168 18.096C171.358 18.096 170.643 17.9147 170.024 17.552C169.416 17.1787 168.942 16.656 168.6 15.984C168.27 15.312 168.104 14.5387 168.104 13.664C168.104 12.8 168.27 12.0373 168.6 11.376C168.931 10.7147 169.4 10.2027 170.008 9.84C170.616 9.47733 171.315 9.296 172.104 9.296C173.32 9.296 174.248 9.74933 174.888 10.656V6.128H177.336ZM172.744 16.112C173.374 16.112 173.886 15.8933 174.28 15.456C174.686 15.008 174.888 14.432 174.888 13.728C174.888 13.024 174.686 12.4533 174.28 12.016C173.886 11.568 173.374 11.344 172.744 11.344C172.104 11.344 171.582 11.568 171.176 12.016C170.782 12.4533 170.579 13.024 170.568 13.728C170.579 14.432 170.782 15.008 171.176 15.456C171.582 15.8933 172.104 16.112 172.744 16.112ZM185.217 11.92C184.748 11.6533 184.284 11.4507 183.825 11.312C183.367 11.1627 182.956 11.088 182.593 11.088C182.295 11.088 182.055 11.1413 181.873 11.248C181.692 11.3547 181.601 11.5147 181.601 11.728C181.601 11.9627 181.724 12.144 181.969 12.272C182.215 12.4 182.615 12.544 183.169 12.704C183.777 12.8853 184.279 13.0667 184.673 13.248C185.068 13.4187 185.409 13.68 185.697 14.032C185.985 14.3733 186.129 14.8267 186.129 15.392C186.129 16.2453 185.799 16.912 185.137 17.392C184.487 17.8613 183.649 18.096 182.625 18.096C181.921 18.096 181.244 17.9947 180.593 17.792C179.943 17.5787 179.377 17.28 178.897 16.896L179.697 15.232C180.135 15.5733 180.62 15.84 181.153 16.032C181.697 16.2133 182.209 16.304 182.689 16.304C183.02 16.304 183.281 16.2507 183.473 16.144C183.676 16.0267 183.777 15.856 183.777 15.632C183.777 15.3867 183.649 15.1947 183.393 15.056C183.148 14.9173 182.748 14.768 182.193 14.608C181.607 14.4373 181.116 14.2667 180.721 14.096C180.337 13.9253 180.007 13.6693 179.729 13.328C179.452 12.976 179.313 12.5227 179.313 11.968C179.313 11.1147 179.633 10.4533 180.273 9.984C180.913 9.51467 181.724 9.28 182.705 9.28C183.292 9.28 183.879 9.36533 184.465 9.536C185.052 9.696 185.585 9.93067 186.065 10.24L185.217 11.92Z" fill="#151515"/>
<path d="M181.383 96.704C182.951 96.704 184.156 97.1947 184.999 98.176C185.841 99.1573 186.263 100.565 186.263 102.4C186.263 104.224 185.841 105.632 184.999 106.624C184.156 107.605 182.951 108.096 181.383 108.096C179.804 108.096 178.588 107.605 177.735 106.624C176.892 105.632 176.471 104.224 176.471 102.4C176.471 100.565 176.892 99.1573 177.735 98.176C178.588 97.1947 179.804 96.704 181.383 96.704ZM181.383 98.64C180.583 98.64 179.996 98.9387 179.623 99.536C179.249 100.133 179.063 101.088 179.063 102.4C179.063 103.701 179.249 104.656 179.623 105.264C179.996 105.861 180.583 106.16 181.383 106.16C182.161 106.16 182.737 105.861 183.111 105.264C183.484 104.656 183.671 103.701 183.671 102.4C183.671 101.088 183.484 100.133 183.111 99.536C182.737 98.9387 182.161 98.64 181.383 98.64Z" fill="#151515"/>
<path d="M181.383 51.704C182.951 51.704 184.156 52.1947 184.999 53.176C185.841 54.1573 186.263 55.5653 186.263 57.4C186.263 59.224 185.841 60.632 184.999 61.624C184.156 62.6053 182.951 63.096 181.383 63.096C179.804 63.096 178.588 62.6053 177.735 61.624C176.892 60.632 176.471 59.224 176.471 57.4C176.471 55.5653 176.892 54.1573 177.735 53.176C178.588 52.1947 179.804 51.704 181.383 51.704ZM181.383 53.64C180.583 53.64 179.996 53.9387 179.623 54.536C179.249 55.1333 179.063 56.088 179.063 57.4C179.063 58.7013 179.249 59.656 179.623 60.264C179.996 60.8613 180.583 61.16 181.383 61.16C182.161 61.16 182.737 60.8613 183.111 60.264C183.484 59.656 183.671 58.7013 183.671 57.4C183.671 56.088 183.484 55.1333 183.111 54.536C182.737 53.9387 182.161 53.64 181.383 53.64Z" fill="#151515"/>
<path d="M181.383 141.704C182.951 141.704 184.156 142.195 184.999 143.176C185.841 144.157 186.263 145.565 186.263 147.4C186.263 149.224 185.841 150.632 184.999 151.624C184.156 152.605 182.951 153.096 181.383 153.096C179.804 153.096 178.588 152.605 177.735 151.624C176.892 150.632 176.471 149.224 176.471 147.4C176.471 145.565 176.892 144.157 177.735 143.176C178.588 142.195 179.804 141.704 181.383 141.704ZM181.383 143.64C180.583 143.64 179.996 143.939 179.623 144.536C179.249 145.133 179.063 146.088 179.063 147.4C179.063 148.701 179.249 149.656 179.623 150.264C179.996 150.861 180.583 151.16 181.383 151.16C182.161 151.16 182.737 150.861 183.111 150.264C183.484 149.656 183.671 148.701 183.671 147.4C183.671 146.088 183.484 145.133 183.111 144.536C182.737 143.939 182.161 143.64 181.383 143.64Z" fill="#151515"/>
<path d="M181.383 186.704C182.951 186.704 184.156 187.195 184.999 188.176C185.841 189.157 186.263 190.565 186.263 192.4C186.263 194.224 185.841 195.632 184.999 196.624C184.156 197.605 182.951 198.096 181.383 198.096C179.804 198.096 178.588 197.605 177.735 196.624C176.892 195.632 176.471 194.224 176.471 192.4C176.471 190.565 176.892 189.157 177.735 188.176C178.588 187.195 179.804 186.704 181.383 186.704ZM181.383 188.64C180.583 188.64 179.996 188.939 179.623 189.536C179.249 190.133 179.063 191.088 179.063 192.4C179.063 193.701 179.249 194.656 179.623 195.264C179.996 195.861 180.583 196.16 181.383 196.16C182.161 196.16 182.737 195.861 183.111 195.264C183.484 194.656 183.671 193.701 183.671 192.4C183.671 191.088 183.484 190.133 183.111 189.536C182.737 188.939 182.161 188.64 181.383 188.64Z" fill="#151515"/>
<path d="M181.383 231.704C182.951 231.704 184.156 232.195 184.999 233.176C185.841 234.157 186.263 235.565 186.263 237.4C186.263 239.224 185.841 240.632 184.999 241.624C184.156 242.605 182.951 243.096 181.383 243.096C179.804 243.096 178.588 242.605 177.735 241.624C176.892 240.632 176.471 239.224 176.471 237.4C176.471 235.565 176.892 234.157 177.735 233.176C178.588 232.195 179.804 231.704 181.383 231.704ZM181.383 233.64C180.583 233.64 179.996 233.939 179.623 234.536C179.249 235.133 179.063 236.088 179.063 237.4C179.063 238.701 179.249 239.656 179.623 240.264C179.996 240.861 180.583 241.16 181.383 241.16C182.161 241.16 182.737 240.861 183.111 240.264C183.484 239.656 183.671 238.701 183.671 237.4C183.671 236.088 183.484 235.133 183.111 234.536C182.737 233.939 182.161 233.64 181.383 233.64Z" fill="#151515"/>
<path d="M21.176 108V106.992C20.888 107.355 20.5147 107.632 20.056 107.824C19.5973 108.016 19.0693 108.112 18.472 108.112C17.5653 108.112 16.8453 107.867 16.312 107.376C15.7787 106.875 15.512 106.224 15.512 105.424C15.512 104.613 15.7947 103.984 16.36 103.536C16.936 103.077 17.7467 102.843 18.792 102.832H21.16V102.672C21.16 102.213 21.0053 101.861 20.696 101.616C20.3973 101.36 19.9547 101.232 19.368 101.232C18.568 101.232 17.7147 101.483 16.808 101.984L16.04 100.288C16.7227 99.9467 17.3627 99.696 17.96 99.536C18.5573 99.376 19.2133 99.296 19.928 99.296C21.08 99.296 21.9707 99.568 22.6 100.112C23.24 100.656 23.5653 101.413 23.576 102.384L23.592 108H21.176ZM19.16 106.352C19.672 106.352 20.1147 106.229 20.488 105.984C20.8613 105.739 21.0853 105.429 21.16 105.056V104.288H19.224C18.744 104.288 18.3867 104.368 18.152 104.528C17.928 104.677 17.816 104.923 17.816 105.264C17.816 105.595 17.9333 105.861 18.168 106.064C18.4133 106.256 18.744 106.352 19.16 106.352Z" fill="#151515"/>
<path d="M20.216 51.128C19.6187 52.0773 19.1493 53.1493 18.808 54.344C18.4667 55.5387 18.296 56.776 18.296 58.056C18.296 59.336 18.4667 60.5733 18.808 61.768C19.1493 62.9627 19.6187 64.0347 20.216 64.984H18.008C17.3573 64.056 16.856 63 16.504 61.816C16.1627 60.6213 15.992 59.368 15.992 58.056C15.992 56.744 16.1627 55.496 16.504 54.312C16.856 53.1173 17.3573 52.056 18.008 51.128H20.216ZM20.2645 54.408L22.7765 54.392L24.6965 60.552L26.5525 54.392H28.9685L30.8565 60.552L32.7445 54.392H35.1765L32.0405 63H29.5765L27.7205 57.32L25.8805 63H23.4165L20.2645 54.408ZM41.7821 54.296C42.7528 54.296 43.5208 54.5947 44.0861 55.192C44.6621 55.7893 44.9501 56.5893 44.9501 57.592V63H42.4861V58.312C42.4861 57.768 42.3315 57.3413 42.0221 57.032C41.7235 56.712 41.3128 56.552 40.7901 56.552C40.1821 56.5627 39.6968 56.776 39.3341 57.192C38.9821 57.5973 38.8061 58.12 38.8061 58.76V63H36.3421V51.128H38.8061V55.912C39.4035 54.856 40.3955 54.3173 41.7821 54.296ZM50.755 54.312C52.1417 54.312 53.1923 54.712 53.907 55.512C54.6323 56.312 54.995 57.4267 54.995 58.856C54.995 59.112 54.9897 59.3093 54.979 59.448H48.803C48.9417 59.992 49.2083 60.4187 49.603 60.728C49.9977 61.0267 50.4723 61.176 51.027 61.176C51.4323 61.176 51.8217 61.1013 52.195 60.952C52.5683 60.792 52.9043 60.5627 53.203 60.264L54.499 61.576C54.0617 62.0667 53.5283 62.4453 52.899 62.712C52.2803 62.968 51.587 63.096 50.819 63.096C49.9123 63.096 49.1177 62.9147 48.435 62.552C47.763 62.1893 47.2403 61.6773 46.867 61.016C46.5043 60.3547 46.323 59.592 46.323 58.728C46.323 57.8533 46.5097 57.0853 46.883 56.424C47.2563 55.752 47.779 55.2347 48.451 54.872C49.123 54.4987 49.891 54.312 50.755 54.312ZM52.675 57.992C52.6537 57.4267 52.4723 56.9733 52.131 56.632C51.7897 56.2907 51.3363 56.12 50.771 56.12C50.2377 56.12 49.7897 56.2907 49.427 56.632C49.075 56.9627 48.851 57.416 48.755 57.992H52.675ZM62.0459 54.296C63.0059 54.296 63.7685 54.5947 64.3339 55.192C64.9099 55.7893 65.1979 56.5893 65.1979 57.592V63H62.7339V58.312C62.7339 57.768 62.5792 57.3413 62.2699 57.032C61.9712 56.712 61.5605 56.552 61.0379 56.552C60.4299 56.5627 59.9499 56.776 59.5979 57.192C59.2459 57.5973 59.0699 58.12 59.0699 58.76V63H56.6059V54.392H59.0699V55.896C59.6672 54.8507 60.6592 54.3173 62.0459 54.296Z" fill="#151515"/>
<path d="M21.448 144.312C22.248 144.312 22.952 144.499 23.56 144.872C24.1787 145.235 24.6533 145.752 24.984 146.424C25.3253 147.096 25.496 147.869 25.496 148.744C25.496 149.608 25.3307 150.371 25 151.032C24.6693 151.683 24.2 152.189 23.592 152.552C22.9947 152.915 22.296 153.096 21.496 153.096C20.8987 153.096 20.3653 152.984 19.896 152.76C19.4373 152.525 19.048 152.189 18.728 151.752V153H16.264V141.128H18.728V145.656C19.0373 145.219 19.4213 144.888 19.88 144.664C20.3493 144.429 20.872 144.312 21.448 144.312ZM20.872 151.048C21.5013 151.048 22.0133 150.829 22.408 150.392C22.8027 149.944 23 149.368 23 148.664C23 147.971 22.8027 147.405 22.408 146.968C22.0133 146.52 21.5013 146.296 20.872 146.296C20.2427 146.296 19.7253 146.52 19.32 146.968C18.9253 147.405 18.728 147.971 18.728 148.664C18.728 149.379 18.9253 149.955 19.32 150.392C19.7253 150.829 20.2427 151.048 20.872 151.048ZM35.2975 144.392V153H32.8495V151.48C32.2628 152.557 31.3028 153.096 29.9695 153.096C29.0202 153.096 28.2628 152.803 27.6975 152.216C27.1428 151.619 26.8655 150.813 26.8655 149.8V144.392H29.3295V149.096C29.3295 149.64 29.4735 150.067 29.7615 150.376C30.0495 150.685 30.4442 150.84 30.9455 150.84C31.5322 150.829 31.9962 150.621 32.3375 150.216C32.6788 149.811 32.8495 149.288 32.8495 148.648V144.392H35.2975ZM40.148 145.944C40.4467 145.411 40.836 145.005 41.316 144.728C41.796 144.451 42.356 144.307 42.996 144.296V146.616C42.9107 146.605 42.7827 146.6 42.612 146.6C41.8547 146.6 41.252 146.808 40.804 147.224C40.3667 147.629 40.148 148.173 40.148 148.856V153H37.684V144.392H40.148V145.944ZM49.7803 144.296C50.7403 144.296 51.5029 144.595 52.0683 145.192C52.6443 145.789 52.9323 146.589 52.9323 147.592V153H50.4683V148.312C50.4683 147.768 50.3136 147.341 50.0043 147.032C49.7056 146.712 49.2949 146.552 48.7723 146.552C48.1643 146.563 47.6843 146.776 47.3323 147.192C46.9803 147.597 46.8043 148.12 46.8043 148.76V153H44.3403V144.392H46.8043V145.896C47.4016 144.851 48.3936 144.317 49.7803 144.296ZM55.059 144.392H57.523V153H55.059V144.392ZM56.275 140.568C56.6697 140.568 56.9897 140.696 57.235 140.952C57.491 141.208 57.619 141.539 57.619 141.944C57.619 142.349 57.491 142.68 57.235 142.936C56.9897 143.192 56.6697 143.32 56.275 143.32C55.891 143.32 55.571 143.192 55.315 142.936C55.0697 142.669 54.947 142.339 54.947 141.944C54.947 141.539 55.0697 141.208 55.315 140.952C55.571 140.696 55.891 140.568 56.275 140.568ZM65.3271 144.296C66.2871 144.296 67.0498 144.595 67.6151 145.192C68.1911 145.789 68.4791 146.589 68.4791 147.592V153H66.0151V148.312C66.0151 147.768 65.8605 147.341 65.5511 147.032C65.2525 146.712 64.8418 146.552 64.3191 146.552C63.7111 146.563 63.2311 146.776 62.8791 147.192C62.5271 147.597 62.3511 148.12 62.3511 148.76V153H59.8871V144.392H62.3511V145.896C62.9485 144.851 63.9405 144.317 65.3271 144.296ZM78.6699 144.392V152.2C78.6699 153.011 78.4779 153.715 78.0939 154.312C77.7099 154.92 77.1712 155.384 76.4779 155.704C75.7845 156.035 74.9845 156.2 74.0779 156.2C73.3739 156.2 72.7019 156.099 72.0619 155.896C71.4325 155.693 70.8565 155.416 70.3339 155.064L71.2459 153.336C72.0565 153.912 72.9472 154.2 73.9179 154.2C74.6219 154.2 75.1819 154.024 75.5979 153.672C76.0139 153.331 76.2219 152.867 76.2219 152.28V151.304C75.9339 151.709 75.5712 152.019 75.1339 152.232C74.6965 152.445 74.1952 152.552 73.6299 152.552C72.8939 152.552 72.2379 152.381 71.6619 152.04C71.0965 151.688 70.6539 151.197 70.3339 150.568C70.0245 149.939 69.8699 149.213 69.8699 148.392C69.8699 147.581 70.0245 146.872 70.3339 146.264C70.6539 145.645 71.0965 145.165 71.6619 144.824C72.2379 144.483 72.8939 144.312 73.6299 144.312C74.1845 144.312 74.6805 144.424 75.1179 144.648C75.5552 144.861 75.9232 145.165 76.2219 145.56V144.392H78.6699ZM74.2059 150.68C74.8032 150.68 75.2885 150.477 75.6619 150.072C76.0352 149.656 76.2219 149.117 76.2219 148.456C76.2219 147.795 76.0352 147.256 75.6619 146.84C75.2885 146.424 74.8032 146.216 74.2059 146.216C73.6085 146.216 73.1232 146.424 72.7499 146.84C72.3765 147.256 72.1845 147.795 72.1739 148.456C72.1845 149.117 72.3712 149.656 72.7339 150.072C73.1072 150.477 73.5979 150.68 74.2059 150.68Z" fill="#151515"/>
<path d="M21.512 197.52C21.192 197.712 20.8347 197.861 20.44 197.968C20.056 198.064 19.6667 198.112 19.272 198.112C18.472 198.112 17.8213 197.883 17.32 197.424C16.8187 196.965 16.568 196.309 16.568 195.456V191.472H15.368V189.776H16.568V187.408H19.016V189.776H21.352V191.488H19.016V195.04C19.016 195.701 19.2773 196.032 19.8 196.032C20.1627 196.032 20.5627 195.925 21 195.712L21.512 197.52ZM28.5165 189.296C29.4872 189.296 30.2552 189.595 30.8205 190.192C31.3965 190.789 31.6845 191.589 31.6845 192.592V198H29.2205V193.312C29.2205 192.768 29.0658 192.341 28.7565 192.032C28.4578 191.712 28.0472 191.552 27.5245 191.552C26.9165 191.563 26.4312 191.776 26.0685 192.192C25.7165 192.597 25.5405 193.12 25.5405 193.76V198H23.0765V186.128H25.5405V190.912C26.1378 189.856 27.1298 189.317 28.5165 189.296ZM33.7934 189.392H36.2574V198H33.7934V189.392ZM35.0094 185.568C35.404 185.568 35.724 185.696 35.9694 185.952C36.2254 186.208 36.3534 186.539 36.3534 186.944C36.3534 187.349 36.2254 187.68 35.9694 187.936C35.724 188.192 35.404 188.32 35.0094 188.32C34.6254 188.32 34.3054 188.192 34.0494 187.936C33.804 187.669 33.6814 187.339 33.6814 186.944C33.6814 186.539 33.804 186.208 34.0494 185.952C34.3054 185.696 34.6254 185.568 35.0094 185.568ZM44.0455 191.92C43.5762 191.653 43.1122 191.451 42.6535 191.312C42.1948 191.163 41.7842 191.088 41.4215 191.088C41.1228 191.088 40.8828 191.141 40.7015 191.248C40.5202 191.355 40.4295 191.515 40.4295 191.728C40.4295 191.963 40.5522 192.144 40.7975 192.272C41.0428 192.4 41.4428 192.544 41.9975 192.704C42.6055 192.885 43.1068 193.067 43.5015 193.248C43.8962 193.419 44.2375 193.68 44.5255 194.032C44.8135 194.373 44.9575 194.827 44.9575 195.392C44.9575 196.245 44.6268 196.912 43.9655 197.392C43.3148 197.861 42.4775 198.096 41.4535 198.096C40.7495 198.096 40.0722 197.995 39.4215 197.792C38.7708 197.579 38.2055 197.28 37.7255 196.896L38.5255 195.232C38.9628 195.573 39.4482 195.84 39.9815 196.032C40.5255 196.213 41.0375 196.304 41.5175 196.304C41.8482 196.304 42.1095 196.251 42.3015 196.144C42.5042 196.027 42.6055 195.856 42.6055 195.632C42.6055 195.387 42.4775 195.195 42.2215 195.056C41.9762 194.917 41.5762 194.768 41.0215 194.608C40.4348 194.437 39.9442 194.267 39.5495 194.096C39.1655 193.925 38.8348 193.669 38.5575 193.328C38.2802 192.976 38.1415 192.523 38.1415 191.968C38.1415 191.115 38.4615 190.453 39.1015 189.984C39.7415 189.515 40.5522 189.28 41.5335 189.28C42.1202 189.28 42.7068 189.365 43.2935 189.536C43.8802 189.696 44.4135 189.931 44.8935 190.24L44.0455 191.92Z" fill="#151515"/>
<path d="M17.264 231.128H19.728V243H17.264V231.128ZM27.1916 243V241.992C26.9036 242.355 26.5303 242.632 26.0716 242.824C25.613 243.016 25.085 243.112 24.4876 243.112C23.581 243.112 22.861 242.867 22.3276 242.376C21.7943 241.875 21.5276 241.224 21.5276 240.424C21.5276 239.613 21.8103 238.984 22.3756 238.536C22.9516 238.077 23.7623 237.843 24.8076 237.832H27.1756V237.672C27.1756 237.213 27.021 236.861 26.7116 236.616C26.413 236.36 25.9703 236.232 25.3836 236.232C24.5836 236.232 23.7303 236.483 22.8236 236.984L22.0556 235.288C22.7383 234.947 23.3783 234.696 23.9756 234.536C24.573 234.376 25.229 234.296 25.9436 234.296C27.0956 234.296 27.9863 234.568 28.6156 235.112C29.2556 235.656 29.581 236.413 29.5916 237.384L29.6076 243H27.1916ZM25.1756 241.352C25.6876 241.352 26.1303 241.229 26.5036 240.984C26.877 240.739 27.101 240.429 27.1756 240.056V239.288H25.2396C24.7596 239.288 24.4023 239.368 24.1676 239.528C23.9436 239.677 23.8316 239.923 23.8316 240.264C23.8316 240.595 23.949 240.861 24.1836 241.064C24.429 241.256 24.7596 241.352 25.1756 241.352ZM34.1949 235.944C34.4935 235.411 34.8829 235.005 35.3629 234.728C35.8429 234.451 36.4029 234.307 37.0429 234.296V236.616C36.9575 236.605 36.8295 236.6 36.6589 236.6C35.9015 236.6 35.2989 236.808 34.8509 237.224C34.4135 237.629 34.1949 238.173 34.1949 238.856V243H31.7309V234.392H34.1949V235.944ZM46.4511 234.392V242.2C46.4511 243.011 46.2591 243.715 45.8751 244.312C45.4911 244.92 44.9525 245.384 44.2591 245.704C43.5658 246.035 42.7658 246.2 41.8591 246.2C41.1551 246.2 40.4831 246.099 39.8431 245.896C39.2138 245.693 38.6378 245.416 38.1151 245.064L39.0271 243.336C39.8378 243.912 40.7285 244.2 41.6991 244.2C42.4031 244.2 42.9631 244.024 43.3791 243.672C43.7951 243.331 44.0031 242.867 44.0031 242.28V241.304C43.7151 241.709 43.3525 242.019 42.9151 242.232C42.4778 242.445 41.9765 242.552 41.4111 242.552C40.6751 242.552 40.0191 242.381 39.4431 242.04C38.8778 241.688 38.4351 241.197 38.1151 240.568C37.8058 239.939 37.6511 239.213 37.6511 238.392C37.6511 237.581 37.8058 236.872 38.1151 236.264C38.4351 235.645 38.8778 235.165 39.4431 234.824C40.0191 234.483 40.6751 234.312 41.4111 234.312C41.9658 234.312 42.4618 234.424 42.8991 234.648C43.3365 234.861 43.7045 235.165 44.0031 235.56V234.392H46.4511ZM41.9871 240.68C42.5845 240.68 43.0698 240.477 43.4431 240.072C43.8165 239.656 44.0031 239.117 44.0031 238.456C44.0031 237.795 43.8165 237.256 43.4431 236.84C43.0698 236.424 42.5845 236.216 41.9871 236.216C41.3898 236.216 40.9045 236.424 40.5311 236.84C40.1578 237.256 39.9658 237.795 39.9551 238.456C39.9658 239.117 40.1525 239.656 40.5151 240.072C40.8885 240.477 41.3791 240.68 41.9871 240.68ZM52.3956 234.312C53.7823 234.312 54.833 234.712 55.5476 235.512C56.273 236.312 56.6356 237.427 56.6356 238.856C56.6356 239.112 56.6303 239.309 56.6196 239.448H50.4436C50.5823 239.992 50.849 240.419 51.2436 240.728C51.6383 241.027 52.113 241.176 52.6676 241.176C53.073 241.176 53.4623 241.101 53.8356 240.952C54.209 240.792 54.545 240.563 54.8436 240.264L56.1396 241.576C55.7023 242.067 55.169 242.445 54.5396 242.712C53.921 242.968 53.2276 243.096 52.4596 243.096C51.553 243.096 50.7583 242.915 50.0756 242.552C49.4036 242.189 48.881 241.677 48.5076 241.016C48.145 240.355 47.9636 239.592 47.9636 238.728C47.9636 237.853 48.1503 237.085 48.5236 236.424C48.897 235.752 49.4196 235.235 50.0916 234.872C50.7636 234.499 51.5316 234.312 52.3956 234.312ZM54.3156 237.992C54.2943 237.427 54.113 236.973 53.7716 236.632C53.4303 236.291 52.977 236.12 52.4116 236.12C51.8783 236.12 51.4303 236.291 51.0676 236.632C50.7156 236.963 50.4916 237.416 50.3956 237.992H54.3156Z" fill="#151515"/>
<path d="M213.512 17.52C213.192 17.712 212.835 17.8613 212.44 17.968C212.056 18.064 211.667 18.112 211.272 18.112C210.472 18.112 209.821 17.8827 209.32 17.424C208.819 16.9653 208.568 16.3093 208.568 15.456V11.472H207.368V9.776H208.568V7.408H211.016V9.776H213.352V11.488H211.016V15.04C211.016 15.7013 211.277 16.032 211.8 16.032C212.163 16.032 212.563 15.9253 213 15.712L213.512 17.52ZM218.63 9.312C220.017 9.312 221.067 9.712 221.782 10.512C222.507 11.312 222.87 12.4267 222.87 13.856C222.87 14.112 222.865 14.3093 222.854 14.448H216.678C216.817 14.992 217.083 15.4187 217.478 15.728C217.873 16.0267 218.347 16.176 218.902 16.176C219.307 16.176 219.697 16.1013 220.07 15.952C220.443 15.792 220.779 15.5627 221.078 15.264L222.374 16.576C221.937 17.0667 221.403 17.4453 220.774 17.712C220.155 17.968 219.462 18.096 218.694 18.096C217.787 18.096 216.993 17.9147 216.31 17.552C215.638 17.1893 215.115 16.6773 214.742 16.016C214.379 15.3547 214.198 14.592 214.198 13.728C214.198 12.8533 214.385 12.0853 214.758 11.424C215.131 10.752 215.654 10.2347 216.326 9.872C216.998 9.49867 217.766 9.312 218.63 9.312ZM220.55 12.992C220.529 12.4267 220.347 11.9733 220.006 11.632C219.665 11.2907 219.211 11.12 218.646 11.12C218.113 11.12 217.665 11.2907 217.302 11.632C216.95 11.9627 216.726 12.416 216.63 12.992H220.55ZM223.133 9.392H225.949L227.533 12L229.213 9.392H231.901L229.165 13.584L232.093 18H229.261L227.533 15.184L225.645 18H222.925L225.901 13.6L223.133 9.392ZM238.746 17.52C238.426 17.712 238.069 17.8613 237.674 17.968C237.29 18.064 236.901 18.112 236.506 18.112C235.706 18.112 235.056 17.8827 234.554 17.424C234.053 16.9653 233.802 16.3093 233.802 15.456V11.472H232.602V9.776H233.802V7.408H236.25V9.776H238.586V11.488H236.25V15.04C236.25 15.7013 236.512 16.032 237.034 16.032C237.397 16.032 237.797 15.9253 238.234 15.712L238.746 17.52ZM239.047 19.856H248.279V21.264H239.047V19.856ZM248.249 9.408L250.761 9.392L252.681 15.552L254.537 9.392H256.953L258.841 15.552L260.729 9.392H263.161L260.025 18H257.561L255.705 12.32L253.865 18H251.401L248.249 9.408ZM267.853 9.312C268.76 9.312 269.56 9.49333 270.253 9.856C270.957 10.2187 271.501 10.7307 271.885 11.392C272.269 12.0533 272.461 12.8213 272.461 13.696C272.461 14.56 272.269 15.328 271.885 16C271.501 16.6613 270.957 17.1787 270.253 17.552C269.56 17.9147 268.76 18.096 267.853 18.096C266.936 18.096 266.125 17.9147 265.421 17.552C264.728 17.1787 264.189 16.6613 263.805 16C263.421 15.328 263.229 14.56 263.229 13.696C263.229 12.8213 263.421 12.0533 263.805 11.392C264.189 10.7307 264.728 10.2187 265.421 9.856C266.125 9.49333 266.936 9.312 267.853 9.312ZM267.853 11.36C267.213 11.36 266.691 11.5787 266.285 12.016C265.891 12.4533 265.693 13.024 265.693 13.728C265.693 14.432 265.891 15.0027 266.285 15.44C266.691 15.8773 267.213 16.096 267.853 16.096C268.483 16.096 268.995 15.8773 269.389 15.44C269.795 15.0027 269.997 14.432 269.997 13.728C269.997 13.024 269.795 12.4533 269.389 12.016C268.995 11.5787 268.483 11.36 267.853 11.36ZM276.554 10.944C276.853 10.4107 277.242 10.0053 277.722 9.728C278.202 9.45067 278.762 9.30667 279.402 9.296V11.616C279.317 11.6053 279.189 11.6 279.018 11.6C278.261 11.6 277.658 11.808 277.21 12.224C276.773 12.6293 276.554 13.1733 276.554 13.856V18H274.09V9.392H276.554V10.944ZM289.243 6.128V18H286.795V16.736C286.485 17.184 286.101 17.5253 285.643 17.76C285.184 17.984 284.661 18.096 284.075 18.096C283.264 18.096 282.549 17.9147 281.931 17.552C281.323 17.1787 280.848 16.656 280.507 15.984C280.176 15.312 280.011 14.5387 280.011 13.664C280.011 12.8 280.176 12.0373 280.507 11.376C280.837 10.7147 281.307 10.2027 281.914 9.84C282.523 9.47733 283.221 9.296 284.011 9.296C285.227 9.296 286.155 9.74933 286.795 10.656V6.128H289.243ZM284.651 16.112C285.28 16.112 285.792 15.8933 286.187 15.456C286.592 15.008 286.795 14.432 286.795 13.728C286.795 13.024 286.592 12.4533 286.187 12.016C285.792 11.568 285.28 11.344 284.651 11.344C284.011 11.344 283.488 11.568 283.083 12.016C282.688 12.4533 282.485 13.024 282.475 13.728C282.485 14.432 282.688 15.008 283.083 15.456C283.488 15.8933 284.011 16.112 284.651 16.112ZM297.124 11.92C296.654 11.6533 296.19 11.4507 295.732 11.312C295.273 11.1627 294.862 11.088 294.5 11.088C294.201 11.088 293.961 11.1413 293.78 11.248C293.598 11.3547 293.508 11.5147 293.508 11.728C293.508 11.9627 293.63 12.144 293.876 12.272C294.121 12.4 294.521 12.544 295.076 12.704C295.684 12.8853 296.185 13.0667 296.58 13.248C296.974 13.4187 297.316 13.68 297.604 14.032C297.892 14.3733 298.036 14.8267 298.036 15.392C298.036 16.2453 297.705 16.912 297.044 17.392C296.393 17.8613 295.556 18.096 294.532 18.096C293.828 18.096 293.15 17.9947 292.5 17.792C291.849 17.5787 291.284 17.28 290.804 16.896L291.604 15.232C292.041 15.5733 292.526 15.84 293.06 16.032C293.604 16.2133 294.116 16.304 294.596 16.304C294.926 16.304 295.188 16.2507 295.38 16.144C295.582 16.0267 295.684 15.856 295.684 15.632C295.684 15.3867 295.556 15.1947 295.3 15.056C295.054 14.9173 294.654 14.768 294.1 14.608C293.513 14.4373 293.022 14.2667 292.628 14.096C292.244 13.9253 291.913 13.6693 291.636 13.328C291.358 12.976 291.22 12.5227 291.22 11.968C291.22 11.1147 291.54 10.4533 292.18 9.984C292.82 9.51467 293.63 9.28 294.612 9.28C295.198 9.28 295.785 9.36533 296.372 9.536C296.958 9.696 297.492 9.93067 297.972 10.24L297.124 11.92Z" fill="#151515"/>
<path d="M293.383 96.704C294.951 96.704 296.156 97.1947 296.999 98.176C297.841 99.1573 298.263 100.565 298.263 102.4C298.263 104.224 297.841 105.632 296.999 106.624C296.156 107.605 294.951 108.096 293.383 108.096C291.804 108.096 290.588 107.605 289.735 106.624C288.892 105.632 288.471 104.224 288.471 102.4C288.471 100.565 288.892 99.1573 289.735 98.176C290.588 97.1947 291.804 96.704 293.383 96.704ZM293.383 98.64C292.583 98.64 291.996 98.9387 291.623 99.536C291.249 100.133 291.063 101.088 291.063 102.4C291.063 103.701 291.249 104.656 291.623 105.264C291.996 105.861 292.583 106.16 293.383 106.16C294.161 106.16 294.737 105.861 295.111 105.264C295.484 104.656 295.671 103.701 295.671 102.4C295.671 101.088 295.484 100.133 295.111 99.536C294.737 98.9387 294.161 98.64 293.383 98.64Z" fill="#151515"/>
<path d="M293.383 51.704C294.951 51.704 296.156 52.1947 296.999 53.176C297.841 54.1573 298.263 55.5653 298.263 57.4C298.263 59.224 297.841 60.632 296.999 61.624C296.156 62.6053 294.951 63.096 293.383 63.096C291.804 63.096 290.588 62.6053 289.735 61.624C288.892 60.632 288.471 59.224 288.471 57.4C288.471 55.5653 288.892 54.1573 289.735 53.176C290.588 52.1947 291.804 51.704 293.383 51.704ZM293.383 53.64C292.583 53.64 291.996 53.9387 291.623 54.536C291.249 55.1333 291.063 56.088 291.063 57.4C291.063 58.7013 291.249 59.656 291.623 60.264C291.996 60.8613 292.583 61.16 293.383 61.16C294.161 61.16 294.737 60.8613 295.111 60.264C295.484 59.656 295.671 58.7013 295.671 57.4C295.671 56.088 295.484 55.1333 295.111 54.536C294.737 53.9387 294.161 53.64 293.383 53.64Z" fill="#151515"/>
<path d="M293.383 141.704C294.951 141.704 296.156 142.195 296.999 143.176C297.841 144.157 298.263 145.565 298.263 147.4C298.263 149.224 297.841 150.632 296.999 151.624C296.156 152.605 294.951 153.096 293.383 153.096C291.804 153.096 290.588 152.605 289.735 151.624C288.892 150.632 288.471 149.224 288.471 147.4C288.471 145.565 288.892 144.157 289.735 143.176C290.588 142.195 291.804 141.704 293.383 141.704ZM293.383 143.64C292.583 143.64 291.996 143.939 291.623 144.536C291.249 145.133 291.063 146.088 291.063 147.4C291.063 148.701 291.249 149.656 291.623 150.264C291.996 150.861 292.583 151.16 293.383 151.16C294.161 151.16 294.737 150.861 295.111 150.264C295.484 149.656 295.671 148.701 295.671 147.4C295.671 146.088 295.484 145.133 295.111 144.536C294.737 143.939 294.161 143.64 293.383 143.64Z" fill="#151515"/>
<path d="M293.383 186.704C294.951 186.704 296.156 187.195 296.999 188.176C297.841 189.157 298.263 190.565 298.263 192.4C298.263 194.224 297.841 195.632 296.999 196.624C296.156 197.605 294.951 198.096 293.383 198.096C291.804 198.096 290.588 197.605 289.735 196.624C288.892 195.632 288.471 194.224 288.471 192.4C288.471 190.565 288.892 189.157 289.735 188.176C290.588 187.195 291.804 186.704 293.383 186.704ZM293.383 188.64C292.583 188.64 291.996 188.939 291.623 189.536C291.249 190.133 291.063 191.088 291.063 192.4C291.063 193.701 291.249 194.656 291.623 195.264C291.996 195.861 292.583 196.16 293.383 196.16C294.161 196.16 294.737 195.861 295.111 195.264C295.484 194.656 295.671 193.701 295.671 192.4C295.671 191.088 295.484 190.133 295.111 189.536C294.737 188.939 294.161 188.64 293.383 188.64Z" fill="#151515"/>
<path d="M293.383 231.704C294.951 231.704 296.156 232.195 296.999 233.176C297.841 234.157 298.263 235.565 298.263 237.4C298.263 239.224 297.841 240.632 296.999 241.624C296.156 242.605 294.951 243.096 293.383 243.096C291.804 243.096 290.588 242.605 289.735 241.624C288.892 240.632 288.471 239.224 288.471 237.4C288.471 235.565 288.892 234.157 289.735 233.176C290.588 232.195 291.804 231.704 293.383 231.704ZM293.383 233.64C292.583 233.64 291.996 233.939 291.623 234.536C291.249 235.133 291.063 236.088 291.063 237.4C291.063 238.701 291.249 239.656 291.623 240.264C291.996 240.861 292.583 241.16 293.383 241.16C294.161 241.16 294.737 240.861 295.111 240.264C295.484 239.656 295.671 238.701 295.671 237.4C295.671 236.088 295.484 235.133 295.111 234.536C294.737 233.939 294.161 233.64 293.383 233.64Z" fill="#151515"/>
<path d="M537.607 96.8H542.391V108H539.863V98.944H537.607V96.8Z" fill="#151515"/>
<path d="M537.607 51.8H542.391V63H539.863V53.944H537.607V51.8Z" fill="#151515"/>
<path d="M537.607 141.8H542.391V153H539.863V143.944H537.607V141.8Z" fill="#151515"/>
<path d="M537.607 186.8H542.391V198H539.863V188.944H537.607V186.8Z" fill="#151515"/>
<path d="M537.607 231.8H542.391V243H539.863V233.944H537.607V231.8Z" fill="#151515"/>
<path d="M320.184 9.392H322.648V18H320.184V9.392ZM321.4 5.568C321.795 5.568 322.115 5.696 322.36 5.952C322.616 6.208 322.744 6.53867 322.744 6.944C322.744 7.34933 322.616 7.68 322.36 7.936C322.115 8.192 321.795 8.32 321.4 8.32C321.016 8.32 320.696 8.192 320.44 7.936C320.195 7.66933 320.072 7.33867 320.072 6.944C320.072 6.53867 320.195 6.208 320.44 5.952C320.696 5.696 321.016 5.568 321.4 5.568ZM330.436 11.92C329.967 11.6533 329.503 11.4507 329.044 11.312C328.585 11.1627 328.175 11.088 327.812 11.088C327.513 11.088 327.273 11.1413 327.092 11.248C326.911 11.3547 326.82 11.5147 326.82 11.728C326.82 11.9627 326.943 12.144 327.188 12.272C327.433 12.4 327.833 12.544 328.388 12.704C328.996 12.8853 329.497 13.0667 329.892 13.248C330.287 13.4187 330.628 13.68 330.916 14.032C331.204 14.3733 331.348 14.8267 331.348 15.392C331.348 16.2453 331.017 16.912 330.356 17.392C329.705 17.8613 328.868 18.096 327.844 18.096C327.14 18.096 326.463 17.9947 325.812 17.792C325.161 17.5787 324.596 17.28 324.116 16.896L324.916 15.232C325.353 15.5733 325.839 15.84 326.372 16.032C326.916 16.2133 327.428 16.304 327.908 16.304C328.239 16.304 328.5 16.2507 328.692 16.144C328.895 16.0267 328.996 15.856 328.996 15.632C328.996 15.3867 328.868 15.1947 328.612 15.056C328.367 14.9173 327.967 14.768 327.412 14.608C326.825 14.4373 326.335 14.2667 325.94 14.096C325.556 13.9253 325.225 13.6693 324.948 13.328C324.671 12.976 324.532 12.5227 324.532 11.968C324.532 11.1147 324.852 10.4533 325.492 9.984C326.132 9.51467 326.943 9.28 327.924 9.28C328.511 9.28 329.097 9.36533 329.684 9.536C330.271 9.696 330.804 9.93067 331.284 10.24L330.436 11.92ZM331.812 19.856H341.045V21.264H331.812V19.856ZM347.687 9.296C348.647 9.296 349.409 9.59467 349.975 10.192C350.551 10.7893 350.839 11.5893 350.839 12.592V18H348.375V13.312C348.375 12.768 348.22 12.3413 347.911 12.032C347.612 11.712 347.201 11.552 346.679 11.552C346.071 11.5627 345.591 11.776 345.239 12.192C344.887 12.5973 344.711 13.12 344.711 13.76V18H342.247V9.392H344.711V10.896C345.308 9.85067 346.3 9.31733 347.687 9.296ZM361.141 9.392V18H358.693V16.48C358.107 17.5573 357.147 18.096 355.813 18.096C354.864 18.096 354.107 17.8027 353.541 17.216C352.987 16.6187 352.709 15.8133 352.709 14.8V9.392H355.173V14.096C355.173 14.64 355.317 15.0667 355.605 15.376C355.893 15.6853 356.288 15.84 356.789 15.84C357.376 15.8293 357.84 15.6213 358.181 15.216C358.523 14.8107 358.693 14.288 358.693 13.648V9.392H361.141ZM374.92 9.296C375.869 9.296 376.621 9.59467 377.176 10.192C377.741 10.7787 378.024 11.5787 378.024 12.592V18H375.576V13.312C375.576 12.7573 375.426 12.3253 375.128 12.016C374.829 11.7067 374.424 11.552 373.912 11.552C373.325 11.5627 372.861 11.7707 372.52 12.176C372.178 12.5813 372.008 13.104 372.008 13.744V18H369.56V13.312C369.56 12.768 369.41 12.3413 369.112 12.032C368.824 11.712 368.424 11.552 367.912 11.552C367.325 11.5627 366.856 11.7707 366.504 12.176C366.162 12.5813 365.992 13.104 365.992 13.744V18H363.528V9.392H365.992V10.88C366.589 9.84533 367.56 9.31733 368.904 9.296C369.629 9.296 370.242 9.472 370.744 9.824C371.245 10.1653 371.602 10.6507 371.816 11.28C372.093 10.6293 372.493 10.1387 373.016 9.808C373.549 9.47733 374.184 9.30667 374.92 9.296ZM385.417 9.312C386.217 9.312 386.921 9.49867 387.529 9.872C388.147 10.2347 388.622 10.752 388.953 11.424C389.294 12.096 389.465 12.8693 389.465 13.744C389.465 14.608 389.299 15.3707 388.969 16.032C388.638 16.6827 388.169 17.1893 387.561 17.552C386.963 17.9147 386.265 18.096 385.465 18.096C384.867 18.096 384.334 17.984 383.865 17.76C383.406 17.5253 383.017 17.1893 382.697 16.752V18H380.233V6.128H382.697V10.656C383.006 10.2187 383.39 9.888 383.849 9.664C384.318 9.42933 384.841 9.312 385.417 9.312ZM384.841 16.048C385.47 16.048 385.982 15.8293 386.377 15.392C386.771 14.944 386.969 14.368 386.969 13.664C386.969 12.9707 386.771 12.4053 386.377 11.968C385.982 11.52 385.47 11.296 384.841 11.296C384.211 11.296 383.694 11.52 383.289 11.968C382.894 12.4053 382.697 12.9707 382.697 13.664C382.697 14.3787 382.894 14.9547 383.289 15.392C383.694 15.8293 384.211 16.048 384.841 16.048ZM394.786 9.312C396.173 9.312 397.224 9.712 397.938 10.512C398.664 11.312 399.026 12.4267 399.026 13.856C399.026 14.112 399.021 14.3093 399.01 14.448H392.834C392.973 14.992 393.24 15.4187 393.634 15.728C394.029 16.0267 394.504 16.176 395.058 16.176C395.464 16.176 395.853 16.1013 396.226 15.952C396.6 15.792 396.936 15.5627 397.234 15.264L398.53 16.576C398.093 17.0667 397.56 17.4453 396.93 17.712C396.312 17.968 395.618 18.096 394.85 18.096C393.944 18.096 393.149 17.9147 392.466 17.552C391.794 17.1893 391.272 16.6773 390.898 16.016C390.536 15.3547 390.354 14.592 390.354 13.728C390.354 12.8533 390.541 12.0853 390.914 11.424C391.288 10.752 391.81 10.2347 392.482 9.872C393.154 9.49867 393.922 9.312 394.786 9.312ZM396.706 12.992C396.685 12.4267 396.504 11.9733 396.162 11.632C395.821 11.2907 395.368 11.12 394.802 11.12C394.269 11.12 393.821 11.2907 393.458 11.632C393.106 11.9627 392.882 12.416 392.786 12.992H396.706ZM403.101 10.944C403.4 10.4107 403.789 10.0053 404.269 9.728C404.749 9.45067 405.309 9.30667 405.949 9.296V11.616C405.864 11.6053 405.736 11.6 405.565 11.6C404.808 11.6 404.205 11.808 403.757 12.224C403.32 12.6293 403.101 13.1733 403.101 13.856V18H400.637V9.392H403.101V10.944ZM406.109 19.856H415.341V21.264H406.109V19.856ZM420.431 9.312C421.338 9.312 422.138 9.49333 422.831 9.856C423.535 10.2187 424.079 10.7307 424.463 11.392C424.847 12.0533 425.039 12.8213 425.039 13.696C425.039 14.56 424.847 15.328 424.463 16C424.079 16.6613 423.535 17.1787 422.831 17.552C422.138 17.9147 421.338 18.096 420.431 18.096C419.514 18.096 418.703 17.9147 417.999 17.552C417.306 17.1787 416.767 16.6613 416.383 16C415.999 15.328 415.807 14.56 415.807 13.696C415.807 12.8213 415.999 12.0533 416.383 11.392C416.767 10.7307 417.306 10.2187 417.999 9.856C418.703 9.49333 419.514 9.312 420.431 9.312ZM420.431 11.36C419.791 11.36 419.269 11.5787 418.863 12.016C418.469 12.4533 418.271 13.024 418.271 13.728C418.271 14.432 418.469 15.0027 418.863 15.44C419.269 15.8773 419.791 16.096 420.431 16.096C421.061 16.096 421.573 15.8773 421.967 15.44C422.373 15.0027 422.575 14.432 422.575 13.728C422.575 13.024 422.373 12.4533 421.967 12.016C421.573 11.5787 421.061 11.36 420.431 11.36ZM430.495 8.048C430.196 8.048 429.951 8.13333 429.759 8.304C429.567 8.47467 429.471 8.72533 429.471 9.056V9.776H431.503V11.488H429.471V18H427.023V11.488H425.871V9.776H427.023V8.96C427.023 8.34133 427.162 7.81333 427.439 7.376C427.727 6.928 428.111 6.592 428.591 6.368C429.071 6.13333 429.604 6.016 430.191 6.016C430.746 6.016 431.311 6.13333 431.887 6.368L431.519 8.288C431.359 8.224 431.188 8.17067 431.007 8.128C430.826 8.07467 430.655 8.048 430.495 8.048ZM431.453 19.856H440.685V21.264H431.453V19.856ZM440.655 9.408L443.167 9.392L445.087 15.552L446.943 9.392H449.359L451.247 15.552L453.135 9.392H455.567L452.431 18H449.967L448.111 12.32L446.271 18H443.807L440.655 9.408ZM460.26 9.312C461.166 9.312 461.966 9.49333 462.66 9.856C463.364 10.2187 463.908 10.7307 464.292 11.392C464.676 12.0533 464.868 12.8213 464.868 13.696C464.868 14.56 464.676 15.328 464.292 16C463.908 16.6613 463.364 17.1787 462.66 17.552C461.966 17.9147 461.166 18.096 460.26 18.096C459.342 18.096 458.532 17.9147 457.828 17.552C457.134 17.1787 456.596 16.6613 456.212 16C455.828 15.328 455.636 14.56 455.636 13.696C455.636 12.8213 455.828 12.0533 456.212 11.392C456.596 10.7307 457.134 10.2187 457.828 9.856C458.532 9.49333 459.342 9.312 460.26 9.312ZM460.26 11.36C459.62 11.36 459.097 11.5787 458.692 12.016C458.297 12.4533 458.1 13.024 458.1 13.728C458.1 14.432 458.297 15.0027 458.692 15.44C459.097 15.8773 459.62 16.096 460.26 16.096C460.889 16.096 461.401 15.8773 461.796 15.44C462.201 15.0027 462.404 14.432 462.404 13.728C462.404 13.024 462.201 12.4533 461.796 12.016C461.401 11.5787 460.889 11.36 460.26 11.36ZM468.961 10.944C469.259 10.4107 469.649 10.0053 470.129 9.728C470.609 9.45067 471.169 9.30667 471.809 9.296V11.616C471.723 11.6053 471.595 11.6 471.425 11.6C470.667 11.6 470.065 11.808 469.617 12.224C469.179 12.6293 468.961 13.1733 468.961 13.856V18H466.497V9.392H468.961V10.944ZM481.649 6.128V18H479.201V16.736C478.891 17.184 478.507 17.5253 478.049 17.76C477.59 17.984 477.067 18.096 476.481 18.096C475.67 18.096 474.955 17.9147 474.337 17.552C473.729 17.1787 473.254 16.656 472.913 15.984C472.582 15.312 472.417 14.5387 472.417 13.664C472.417 12.8 472.582 12.0373 472.913 11.376C473.243 10.7147 473.713 10.2027 474.321 9.84C474.929 9.47733 475.627 9.296 476.417 9.296C477.633 9.296 478.561 9.74933 479.201 10.656V6.128H481.649ZM477.057 16.112C477.686 16.112 478.198 15.8933 478.593 15.456C478.998 15.008 479.201 14.432 479.201 13.728C479.201 13.024 478.998 12.4533 478.593 12.016C478.198 11.568 477.686 11.344 477.057 11.344C476.417 11.344 475.894 11.568 475.489 12.016C475.094 12.4533 474.891 13.024 474.881 13.728C474.891 14.432 475.094 15.008 475.489 15.456C475.894 15.8933 476.417 16.112 477.057 16.112ZM489.53 11.92C489.061 11.6533 488.597 11.4507 488.138 11.312C487.679 11.1627 487.269 11.088 486.906 11.088C486.607 11.088 486.367 11.1413 486.186 11.248C486.005 11.3547 485.914 11.5147 485.914 11.728C485.914 11.9627 486.037 12.144 486.282 12.272C486.527 12.4 486.927 12.544 487.482 12.704C488.09 12.8853 488.591 13.0667 488.986 13.248C489.381 13.4187 489.722 13.68 490.01 14.032C490.298 14.3733 490.442 14.8267 490.442 15.392C490.442 16.2453 490.111 16.912 489.45 17.392C488.799 17.8613 487.962 18.096 486.938 18.096C486.234 18.096 485.557 17.9947 484.906 17.792C484.255 17.5787 483.69 17.28 483.21 16.896L484.01 15.232C484.447 15.5733 484.933 15.84 485.466 16.032C486.01 16.2133 486.522 16.304 487.002 16.304C487.333 16.304 487.594 16.2507 487.786 16.144C487.989 16.0267 488.09 15.856 488.09 15.632C488.09 15.3867 487.962 15.1947 487.706 15.056C487.461 14.9173 487.061 14.768 486.506 14.608C485.919 14.4373 485.429 14.2667 485.034 14.096C484.65 13.9253 484.319 13.6693 484.042 13.328C483.765 12.976 483.626 12.5227 483.626 11.968C483.626 11.1147 483.946 10.4533 484.586 9.984C485.226 9.51467 486.037 9.28 487.018 9.28C487.605 9.28 488.191 9.36533 488.778 9.536C489.365 9.696 489.898 9.93067 490.378 10.24L489.53 11.92ZM490.906 19.856H500.138V21.264H490.906V19.856ZM506.764 11.92C506.295 11.6533 505.831 11.4507 505.372 11.312C504.914 11.1627 504.503 11.088 504.14 11.088C503.842 11.088 503.602 11.1413 503.42 11.248C503.239 11.3547 503.148 11.5147 503.148 11.728C503.148 11.9627 503.271 12.144 503.516 12.272C503.762 12.4 504.162 12.544 504.716 12.704C505.324 12.8853 505.826 13.0667 506.22 13.248C506.615 13.4187 506.956 13.68 507.244 14.032C507.532 14.3733 507.676 14.8267 507.676 15.392C507.676 16.2453 507.346 16.912 506.684 17.392C506.034 17.8613 505.196 18.096 504.172 18.096C503.468 18.096 502.791 17.9947 502.14 17.792C501.49 17.5787 500.924 17.28 500.444 16.896L501.244 15.232C501.682 15.5733 502.167 15.84 502.7 16.032C503.244 16.2133 503.756 16.304 504.236 16.304C504.567 16.304 504.828 16.2507 505.02 16.144C505.223 16.0267 505.324 15.856 505.324 15.632C505.324 15.3867 505.196 15.1947 504.94 15.056C504.695 14.9173 504.295 14.768 503.74 14.608C503.154 14.4373 502.663 14.2667 502.268 14.096C501.884 13.9253 501.554 13.6693 501.276 13.328C500.999 12.976 500.86 12.5227 500.86 11.968C500.86 11.1147 501.18 10.4533 501.82 9.984C502.46 9.51467 503.271 9.28 504.252 9.28C504.839 9.28 505.426 9.36533 506.012 9.536C506.599 9.696 507.132 9.93067 507.612 10.24L506.764 11.92ZM514.317 18V16.992C514.029 17.3547 513.655 17.632 513.197 17.824C512.738 18.016 512.21 18.112 511.613 18.112C510.706 18.112 509.986 17.8667 509.453 17.376C508.919 16.8747 508.653 16.224 508.653 15.424C508.653 14.6133 508.935 13.984 509.501 13.536C510.077 13.0773 510.887 12.8427 511.933 12.832H514.301V12.672C514.301 12.2133 514.146 11.8613 513.837 11.616C513.538 11.36 513.095 11.232 512.509 11.232C511.709 11.232 510.855 11.4827 509.949 11.984L509.181 10.288C509.863 9.94667 510.503 9.696 511.101 9.536C511.698 9.376 512.354 9.296 513.069 9.296C514.221 9.296 515.111 9.568 515.741 10.112C516.381 10.656 516.706 11.4133 516.717 12.384L516.733 18H514.317ZM512.301 16.352C512.813 16.352 513.255 16.2293 513.629 15.984C514.002 15.7387 514.226 15.4293 514.301 15.056V14.288H512.365C511.885 14.288 511.527 14.368 511.293 14.528C511.069 14.6773 510.957 14.9227 510.957 15.264C510.957 15.5947 511.074 15.8613 511.309 16.064C511.554 16.256 511.885 16.352 512.301 16.352ZM530.248 9.296C531.197 9.296 531.949 9.59467 532.504 10.192C533.069 10.7787 533.352 11.5787 533.352 12.592V18H530.904V13.312C530.904 12.7573 530.755 12.3253 530.456 12.016C530.157 11.7067 529.752 11.552 529.24 11.552C528.653 11.5627 528.189 11.7707 527.848 12.176C527.507 12.5813 527.336 13.104 527.336 13.744V18H524.888V13.312C524.888 12.768 524.739 12.3413 524.44 12.032C524.152 11.712 523.752 11.552 523.24 11.552C522.653 11.5627 522.184 11.7707 521.832 12.176C521.491 12.5813 521.32 13.104 521.32 13.744V18H518.856V9.392H521.32V10.88C521.917 9.84533 522.888 9.31733 524.232 9.296C524.957 9.296 525.571 9.472 526.072 9.824C526.573 10.1653 526.931 10.6507 527.144 11.28C527.421 10.6293 527.821 10.1387 528.344 9.808C528.877 9.47733 529.512 9.30667 530.248 9.296ZM539.177 9.312C540.564 9.312 541.614 9.712 542.329 10.512C543.054 11.312 543.417 12.4267 543.417 13.856C543.417 14.112 543.412 14.3093 543.401 14.448H537.225C537.364 14.992 537.63 15.4187 538.025 15.728C538.42 16.0267 538.894 16.176 539.449 16.176C539.854 16.176 540.244 16.1013 540.617 15.952C540.99 15.792 541.326 15.5627 541.625 15.264L542.921 16.576C542.484 17.0667 541.95 17.4453 541.321 17.712C540.702 17.968 540.009 18.096 539.241 18.096C538.334 18.096 537.54 17.9147 536.857 17.552C536.185 17.1893 535.662 16.6773 535.289 16.016C534.926 15.3547 534.745 14.592 534.745 13.728C534.745 12.8533 534.932 12.0853 535.305 11.424C535.678 10.752 536.201 10.2347 536.873 9.872C537.545 9.49867 538.313 9.312 539.177 9.312ZM541.097 12.992C541.076 12.4267 540.894 11.9733 540.553 11.632C540.212 11.2907 539.758 11.12 539.193 11.12C538.66 11.12 538.212 11.2907 537.849 11.632C537.497 11.9627 537.273 12.416 537.177 12.992H541.097Z" fill="#151515"/>
</svg>
